<svg fill="#ffffff" viewBox="-51.2 -51.2 614.40 614.40" xmlns="http://www.w3.org/2000/svg" stroke="#ffffff"><g id="SVGRepo_bgCarrier" stroke-width="0"><rect x="-51.2" y="-51.2" width="614.40" height="614.40" rx="0" fill="#000000" strokewidth="0"></rect></g><g id="SVGRepo_tracerCarrier" stroke-linecap="round" stroke-linejoin="round"></g><g id="SVGRepo_iconCarrier"><path d="M167 386q-17 0-29.5 12.5T125 428t12 29 29.5 12 29.5-12 12-29-12-29.5-29-12.5zM42 53v41h41l75 158-28 51q-5 10-5 20 0 18 12.5 30t29.5 12h250v-42H175q-2 0-3.5-1.5T170 318l1-2 19-34h155q11 0 21-6t15-16l75-135q2-4 2-10 0-9-6-15t-14-6H129l-19-41H42zm333 333q-17 0-29.5 12.5t-12 29.5 12.5 29 29 12 29.5-12 12.5-29-12.5-29.5T375 386z"></path></g></svg>