<?xml version="1.0" encoding="iso-8859-1"?>
<!-- Uploaded to: SVG Repo, www.svgrepo.com, Generator: SVG Repo Mixer Tools -->
<svg fill="#000000" version="1.1" id="Layer_1" xmlns="http://www.w3.org/2000/svg" xmlns:xlink="http://www.w3.org/1999/xlink" 
	 viewBox="0 0 512.001 512.001" xml:space="preserve">
<g>
	<g>
		<path d="M243.74,205.851h-56.01c-55.498,0-100.649,45.15-100.649,100.649v148.604h64.032V326.255h8.25v-15.714H135.4v128.849
			h-32.605V306.5c0-46.834,38.101-84.935,84.935-84.935h56.01c46.834,0,84.935,38.101,84.935,84.935v52.164h15.714V306.5
			C344.389,251.002,299.239,205.851,243.74,205.851z"/>
	</g>
</g>
<g>
	<g>
		<path d="M271.208,68.877V55.259C271.208,24.79,246.418,0,215.948,0s-55.259,24.79-55.259,55.259v13.617h-9.696V84.59h8.381v57.502
			h0.001c0,14.77,5.872,28.724,16.533,39.297c10.626,10.536,24.617,16.339,39.396,16.339h0.432c30.729,0,55.73-24.957,55.73-55.634
			V84.59h8.381V68.877H271.208z M176.403,55.259c0-21.805,17.741-39.546,39.546-39.546c21.805,0,39.546,17.741,39.546,39.546v13.617
			h-10.143v-4.999c0-16.213-13.19-29.403-29.403-29.403s-29.403,13.19-29.403,29.403v4.999h-10.143V55.259z M229.639,63.878v4.999
			H202.26v-4.999c0-7.549,6.141-13.69,13.69-13.69C223.498,50.188,229.639,56.329,229.639,63.878z M215.734,182.014h-0.432
			c-21.799,0-40.215-18.282-40.215-39.921V84.59h80.663v57.502h0C255.751,164.105,237.799,182.014,215.734,182.014z"/>
	</g>
</g>
<g>
	<g>
		<path d="M248.143,366.912v112.351h64.176v0.197c0,13.213,10.809,23.963,24.094,23.963c13.285,0,24.094-10.749,24.094-23.963
			v-0.197h64.411V366.912H248.143z M320.7,382.626h32.475v16.235H320.7V382.626z M344.794,479.46c0,4.549-3.76,8.25-8.381,8.25
			s-8.381-3.701-8.381-8.25v-0.197h16.761V479.46z M263.857,463.55v-80.924h41.13v31.949h63.902v-31.949h40.317v80.924H263.857z"/>
	</g>
</g>
<g>
	<g>
		<rect x="272.516" y="439.719" width="48.188" height="15.714"/>
	</g>
</g>
<g>
	<g>
		<rect x="329.085" y="439.719" width="15.714" height="15.714"/>
	</g>
</g>
<g>
	<g>
		<rect x="353.179" y="439.719" width="15.714" height="15.714"/>
	</g>
</g>
<g>
	<g>
		<rect x="207.567" y="238.585" width="15.714" height="15.714"/>
	</g>
</g>
<g>
	<g>
		<rect x="207.567" y="271.059" width="15.714" height="15.714"/>
	</g>
</g>
<g>
	<g>
		<rect x="207.567" y="303.534" width="15.714" height="15.714"/>
	</g>
</g>
<g>
	<g>
		<rect x="207.567" y="333.914" width="15.714" height="15.714"/>
	</g>
</g>
<g>
	<g>
		<rect x="207.567" y="366.388" width="15.714" height="15.714"/>
	</g>
</g>
<g>
	<g>
		<rect x="207.567" y="398.863" width="15.714" height="15.714"/>
	</g>
</g>
<g>
	<g>
		<rect x="207.567" y="431.338" width="15.714" height="15.714"/>
	</g>
</g>
<g>
	<g>
		<rect x="207.567" y="463.813" width="15.714" height="15.714"/>
	</g>
</g>
<g>
	<g>
		<polygon points="272.512,310.866 272.512,326.58 280.892,326.58 280.892,358.007 296.606,358.007 296.606,310.866 		"/>
	</g>
</g>
<g>
	<g>
		<path d="M127.348,463.354c-0.001,10.681-6.913,19.779-16.499,23.055v-23.055H95.135v40.07h7.857
			c22.094,0,40.07-17.975,40.07-40.07H127.348z"/>
	</g>
</g>
<g>
	<g>
		<rect x="143.665" y="496.287" width="48.188" height="15.714"/>
	</g>
</g>
<g>
	<g>
		<rect x="199.186" y="496.287" width="36.665" height="15.714"/>
	</g>
</g>
<g>
	<g>
		<rect x="242.136" y="496.287" width="48.188" height="15.714"/>
	</g>
</g>
<g>
	<g>
		<rect x="150.998" y="271.059" width="40.855" height="15.714"/>
	</g>
</g>
</svg>